<svg width="300" height="74" viewBox="0 0 300 74" fill="none" xmlns="http://www.w3.org/2000/svg">
<path d="M72.1631 38.8558V62.4552H62.9082V38.8558H50.8164V30.93H72.1631V38.8558Z" fill="#19A6DF"/>
<path d="M96.4717 38.7483C96.4717 36.315 95.8813 34.2547 94.7002 32.5674C93.5371 30.8621 91.9563 29.6106 89.9575 28.8127C87.9766 27.9969 85.7363 27.5889 83.2368 27.5889C80.7373 27.5889 78.4971 27.9969 76.5161 28.8127C74.5352 29.6106 72.9543 30.8621 71.7732 32.5674C70.6101 34.2547 70.0293 36.315 70.0293 38.7483V62.4552H79.2842V40.2858C79.2842 38.6346 79.6245 37.3755 80.3052 36.5088C80.9858 35.6241 81.9092 35.1818 83.0752 35.1818C84.2231 35.1818 85.1406 35.6241 85.8213 36.5088C86.5199 37.3755 86.8691 38.6346 86.8691 40.2858V62.4552H96.124V38.7483H96.4717Z" fill="#0D8DC8"/>
<path d="M121.284 30.93H109.192V62.4552H100.285V30.93H88.1934V23H121.284V30.93Z" fill="#0D8DC8"/>
<path d="M141.659 23H150.914V62.4552H141.659V23Z" fill="#0D8DC8"/>
<path d="M174.453 38.8558V62.4552H165.198V38.8558H153.106V30.93H174.453V38.8558Z" fill="#0D8DC8"/>
<path d="M198.761 38.7483C198.761 36.315 198.171 34.2547 197.009 32.5674C195.846 30.8621 194.265 29.6106 192.267 28.8127C190.286 27.9969 188.045 27.5889 185.546 27.5889C183.046 27.5889 180.806 27.9969 178.825 28.8127C176.844 29.6106 175.263 30.8621 174.082 32.5674C172.919 34.2547 172.338 36.315 172.338 38.7483V62.4552H181.593V40.2858C181.593 38.6346 181.933 37.3755 182.614 36.5088C183.295 35.6241 184.218 35.1818 185.384 35.1818C186.532 35.1818 187.45 35.6241 188.13 36.5088C188.829 37.3755 189.178 38.6346 189.178 40.2858V62.4552H198.433V38.7483H198.761Z" fill="#0D8DC8"/>
<path d="M228.169 54.5425C228.169 57.0833 227.561 59.1912 226.345 60.8662C225.147 62.5233 223.494 63.6933 221.386 64.3762C219.296 65.0592 216.924 65.4007 214.269 65.4007C210.835 65.4007 207.82 64.6938 205.223 63.28C202.644 61.8483 200.673 59.8683 199.31 57.34C197.965 54.7933 197.293 51.9017 197.293 48.665C197.293 45.4283 197.965 42.5367 199.31 39.99C200.673 37.4254 202.644 35.4454 205.223 34.0321C207.82 32.6004 210.835 31.8846 214.269 31.8846C216.924 31.8846 219.296 32.2261 221.386 32.9091C223.494 33.592 225.147 34.7621 226.345 36.4292C227.561 38.0783 228.169 40.1862 228.169 42.755V46.03H206.55V51.2721H228.169V54.5425ZM206.55 42.755H218.895C218.895 41.2829 218.57 40.0933 217.92 39.1862C217.288 38.2612 216.386 37.8 215.215 37.8C213.911 37.8 212.876 38.2792 212.11 39.2375C211.362 40.1779 210.835 41.3488 210.528 42.755H206.55Z" fill="#0D8DC8"/>
<path d="M260.403 63.28C262.999 61.8483 264.97 59.8683 266.315 57.34C267.678 54.7933 268.356 51.9017 268.356 48.665C268.356 45.4283 267.678 42.5367 266.315 39.99C264.97 37.4254 262.999 35.4454 260.403 34.0321C257.824 32.6004 254.809 31.8846 251.375 31.8846C247.941 31.8846 244.926 32.6004 242.329 34.0321C239.75 35.4454 237.779 37.4254 236.416 39.99C235.071 42.5367 234.399 45.4283 234.399 48.665C234.399 51.9017 235.071 54.7933 236.416 57.34C237.779 59.8683 239.75 61.8483 242.329 63.28C244.926 64.6938 247.941 65.4007 251.375 65.4007C254.809 65.4007 257.824 64.6938 260.403 63.28ZM251.375 58.0583C249.782 58.0583 248.471 57.6662 247.442 56.8817C246.431 56.0971 245.744 55.0117 245.381 53.6254C245.036 52.2212 244.864 50.5654 244.864 48.6558C244.864 46.7462 245.036 45.0904 245.381 43.6862C245.744 42.2821 246.431 41.1888 247.442 40.4042C248.471 39.6196 249.782 39.2275 251.375 39.2275C252.968 39.2275 254.279 39.6196 255.308 40.4042C256.319 41.1888 257.006 42.2821 257.369 43.6862C257.714 45.0904 257.886 46.7462 257.886 48.6558C257.886 50.5654 257.714 52.2212 257.369 53.6254C257.006 55.0117 256.319 56.0971 255.308 56.8817C254.279 57.6662 252.968 58.0583 251.375 58.0583Z" fill="#0D8DC8"/>
<path d="M299.041 63.1725C298.532 63.8554 297.809 64.3821 296.872 64.7525C295.953 65.1229 294.942 65.3079 293.84 65.3079C292.059 65.3079 290.613 64.8392 289.502 63.9025C288.409 62.9479 287.863 61.6888 287.863 60.1254C287.863 58.9775 288.117 57.9546 288.626 57.0567C289.153 56.1408 289.894 55.3808 290.849 54.7767L295.58 51.6258C293.931 50.4046 292.672 49.3754 291.805 48.5383C290.957 47.6833 290.533 46.6933 290.533 45.5683C290.533 44.0871 291.032 42.8975 292.03 41.9996C293.045 41.0838 294.395 40.6258 296.079 40.6258C297.384 40.6258 298.532 40.9088 299.524 41.4746C300.516 42.0225 301.214 42.8071 301.622 43.8271L292.833 47.6833C293.087 47.1567 293.449 46.755 293.918 46.4779C294.405 46.1829 294.971 46.0354 295.615 46.0354C296.726 46.0354 297.542 46.4058 298.069 47.1479C298.614 47.8721 298.887 48.8125 298.887 49.9683C298.887 50.7708 298.715 51.495 298.37 52.1408C298.026 52.7688 297.477 53.3346 296.726 53.8383L292.03 56.9742C293.811 58.1033 295.147 59.0438 296.038 59.7954C296.945 60.5292 297.399 61.4271 297.399 62.4883C297.399 63.3042 297.054 63.9538 296.365 64.4371C295.694 64.9204 294.868 65.1621 293.887 65.1621C292.68 65.1621 291.706 64.8188 290.965 64.1317C290.224 63.4267 289.854 62.4517 289.854 61.2062L301.812 56.295L299.041 63.1725Z" fill="#F2B92A"/>
<path d="M12.8369 38.8558V62.4552H3.58203V12.0303H12.8369V30.93H24.9287V12.0303H34.1836V62.4552H24.9287V38.8558H12.8369Z" fill="#19A6DF"/>
</svg>
