<svg width="600" height="152" viewBox="0 0 600 152" fill="none" xmlns="http://www.w3.org/2000/svg">
<path d="M104.932 9.22266V142.777H133.51V9.22266H104.932Z" fill="#19A6DF"/>
<path d="M190.613 9.22266L158.623 75.9998L190.613 142.777H222.883L190.756 75.9998L222.883 9.22266H190.613Z" fill="#0D8DC8"/>
<path d="M280 142.777C297.662 142.777 312.41 128.029 312.41 110.367V9.22266H283.832V110.367C283.832 113.842 281.258 114.777 280 114.777C278.742 114.777 276.168 113.842 276.168 110.367V9.22266H247.59V110.367C247.59 128.029 262.338 142.777 280 142.777Z" fill="#0D8DC8"/>
<path d="M370.52 142.777C388.182 142.777 402.93 128.029 402.93 110.367V9.22266H374.352V110.367C374.352 113.842 371.778 114.777 370.52 114.777C369.262 114.777 366.688 113.842 366.688 110.367V9.22266H338.11V110.367C338.11 128.029 352.858 142.777 370.52 142.777Z" fill="#0D8DC8"/>
<path d="M490.932 9.22266V142.777H519.51V9.22266H490.932Z" fill="#19A6DF"/>
<path d="M578.832 9.22266V142.777H600V9.22266H578.832Z" fill="#19A6DF"/>
<path d="M549.421 9.22266L540.698 44.5771H540.421L531.698 9.22266H512.219L536.198 76L512 142.777H531.979L540.562 107.422H540.84L549.421 142.777H568.521L544.542 76L568.802 9.22266H549.421Z" fill="#19A6DF"/>
<path d="M433.896 9.22266L432.896 142.777H461.474V9.22266H433.896Z" fill="#F2B92A"/>
<path d="M60.3646 142.777C82.1706 142.777 99.4219 125.526 99.4219 103.72V9.22266H70.8438V103.72C70.8438 109.805 66.2518 114.397 60.1667 114.397C54.0815 114.397 49.4896 109.805 49.4896 103.72V9.22266H20.9115V103.72C20.9115 125.526 38.1628 142.777 60.3646 142.777Z" fill="#AFC536"/>
<path d="M0 9.22266H28.5781V142.777H0V9.22266Z" fill="#AFC536"/>
</svg>