<svg width="322" height="130" viewBox="0 0 322 130" fill="none" xmlns="http://www.w3.org/2000/svg">
<path d="M4.48 126V81.2H25.664C30.6133 81.2 34.9653 82.1173 38.72 83.952C42.4747 85.7867 45.3973 88.368 47.488 91.696C49.6213 95.024 50.688 98.992 50.688 103.6C50.688 108.165 49.6213 112.133 47.488 115.504C45.3973 118.832 42.4747 121.413 38.72 123.248C34.9653 125.083 30.6133 126 25.664 126H4.48ZM17.152 115.888H25.152C27.712 115.888 29.9307 115.419 31.808 114.48C33.728 113.499 35.2213 112.091 36.288 110.256C37.3547 108.379 37.888 106.16 37.888 103.6C37.888 100.997 37.3547 98.7787 36.288 96.944C35.2213 95.1093 33.728 93.7227 31.808 92.784C29.9307 91.8027 27.712 91.312 25.152 91.312H17.152V115.888ZM258.267 126.576C253.83 126.576 250.374 125.488 247.899 123.312C245.424 121.093 244.187 117.765 244.187 113.328V83.568H256.347V113.2C256.347 114.437 256.688 115.419 257.371 116.144C258.054 116.827 258.928 117.168 259.995 117.168C261.446 117.168 262.683 116.805 263.707 116.08L266.715 124.592C265.691 125.275 264.432 125.765 262.939 126.064C261.446 126.405 259.888 126.576 258.267 126.576ZM239.131 101.68V92.592H264.283V101.68H239.131Z" fill="#0D8DC8"/>
<path d="M74.187 126.576C70.3897 126.576 67.019 125.808 64.075 124.272C61.131 122.736 58.8057 120.624 57.099 117.936C55.435 115.205 54.603 112.091 54.603 108.592C54.603 105.093 55.435 102 57.099 99.312C58.8057 96.624 61.131 94.5333 64.075 93.04C67.019 91.504 70.3897 90.736 74.187 90.736C77.9843 90.736 81.355 91.504 84.299 93.04C87.2857 94.5333 89.611 96.624 91.275 99.312C92.939 102 93.771 105.093 93.771 108.592C93.771 112.091 92.939 115.205 91.275 117.936C89.611 120.624 87.2857 122.736 84.299 124.272C81.355 125.808 77.9843 126.576 74.187 126.576ZM74.187 116.912C75.595 116.912 76.8323 116.592 77.899 115.952C79.0083 115.312 79.883 114.373 80.523 113.136C81.163 111.856 81.483 110.341 81.483 108.592C81.483 106.843 81.163 105.371 80.523 104.176C79.883 102.939 79.0083 102 77.899 101.36C76.8323 100.72 75.595 100.4 74.187 100.4C72.8217 100.4 71.5843 100.72 70.475 101.36C69.4083 102 68.5337 102.939 67.851 104.176C67.211 105.371 66.891 106.843 66.891 108.592C66.891 110.341 67.211 111.856 67.851 113.136C68.5337 114.373 69.4083 115.312 70.475 115.952C71.5843 116.592 72.8217 116.912 74.187 116.912ZM220.387 126.576C217.443 126.576 214.563 126.235 211.747 125.552C208.974 124.869 206.734 124.016 205.027 122.992L208.675 114.672C210.296 115.653 212.195 116.443 214.371 117.04C216.547 117.595 218.68 117.872 220.771 117.872C222.819 117.872 224.227 117.659 224.995 117.232C225.806 116.805 226.211 116.229 226.211 115.504C226.211 114.821 225.827 114.331 225.059 114.032C224.334 113.691 223.352 113.435 222.115 113.264C220.92 113.093 219.598 112.901 218.147 112.688C216.696 112.475 215.224 112.197 213.731 111.856C212.28 111.472 210.936 110.917 209.699 110.192C208.504 109.424 207.544 108.4 206.819 107.12C206.094 105.84 205.731 104.219 205.731 102.256C205.731 100.037 206.371 98.0747 207.651 96.368C208.974 94.6187 210.894 93.2533 213.411 92.272C215.928 91.248 219 90.736 222.627 90.736C225.059 90.736 227.512 90.992 229.987 91.504C232.504 91.9733 234.616 92.6987 236.323 93.68L232.675 101.936C230.968 100.955 229.262 100.293 227.555 99.952C225.848 99.568 224.227 99.376 222.691 99.376C220.643 99.376 219.192 99.6107 218.339 100.08C217.528 100.549 217.123 101.125 217.123 101.808C217.123 102.491 217.486 103.024 218.211 103.408C218.936 103.749 219.896 104.027 221.091 104.24C222.328 104.411 223.672 104.603 225.123 104.816C226.574 104.987 228.024 105.264 229.475 105.648C230.968 106.032 232.312 106.608 233.507 107.376C234.744 108.101 235.726 109.104 236.451 110.384C237.176 111.621 237.539 113.221 237.539 115.184C237.539 117.317 236.878 119.237 235.555 120.944C234.275 122.651 232.355 124.016 229.795 125.04C227.278 126.064 224.142 126.576 220.387 126.576Z" fill="#F2B92A"/>
<path d="M144.588 90.736C147.276 90.736 149.665 91.2907 151.756 92.4C153.889 93.4667 155.553 95.1307 156.748 97.392C157.985 99.6533 158.604 102.576 158.604 106.16V126H146.444V108.144C146.444 105.669 145.975 103.877 145.036 102.768C144.097 101.616 142.817 101.04 141.196 101.04C140.044 101.04 138.999 101.317 138.06 101.872C137.121 102.427 136.396 103.28 135.884 104.432C135.372 105.541 135.116 106.992 135.116 108.784V126H122.956V108.144C122.956 105.669 122.487 103.877 121.548 102.768C120.652 101.616 119.372 101.04 117.708 101.04C116.513 101.04 115.447 101.317 114.508 101.872C113.612 102.427 112.887 103.28 112.332 104.432C111.82 105.541 111.564 106.992 111.564 108.784V126H99.404V91.312H110.988V100.976L108.684 98.224C109.964 95.7493 111.713 93.8933 113.932 92.656C116.151 91.376 118.625 90.736 121.356 90.736C124.471 90.736 127.201 91.5467 129.548 93.168C131.937 94.7467 133.537 97.2213 134.348 100.592L130.38 99.76C131.617 96.944 133.473 94.7467 135.948 93.168C138.465 91.5467 141.345 90.736 144.588 90.736Z" fill="#AFC536"/>
<path d="M184.893 126.576C180.797 126.576 177.213 125.808 174.141 124.272C171.111 122.693 168.743 120.56 167.036 117.872C165.373 115.141 164.541 112.048 164.541 108.592C164.541 105.136 165.351 102.064 166.973 99.376C168.637 96.6453 170.919 94.5333 173.821 93.04C176.722 91.504 179.986 90.736 183.613 90.736C187.026 90.736 190.141 91.44 192.957 92.848C195.773 94.2133 198.013 96.24 199.677 98.928C201.341 101.616 202.173 104.88 202.173 108.72C202.173 109.147 202.151 109.637 202.109 110.192C202.066 110.747 202.023 111.259 201.981 111.728H174.525V105.328H195.517L190.909 107.12C190.951 105.541 190.653 104.176 190.013 103.024C189.415 101.872 188.562 100.976 187.453 100.336C186.386 99.696 185.127 99.376 183.677 99.376C182.226 99.376 180.946 99.696 179.837 100.336C178.77 100.976 177.938 101.893 177.341 103.088C176.743 104.24 176.445 105.605 176.445 107.184V109.04C176.445 110.747 176.786 112.219 177.469 113.456C178.194 114.693 179.218 115.653 180.541 116.336C181.863 116.976 183.442 117.296 185.277 117.296C186.983 117.296 188.434 117.061 189.629 116.592C190.866 116.08 192.082 115.312 193.277 114.288L199.677 120.944C198.013 122.779 195.965 124.187 193.533 125.168C191.101 126.107 188.221 126.576 184.893 126.576Z" fill="#19A6DF"/>
<rect x="200" y="7" width="122" height="60" rx="9" fill="#19A6DF"/>
<path d="M241.174 65.1853L225.174 80.1855L225.174 65.1853L241.174 65.1853Z" fill="#19A6DF"/>
<path d="M224.366 52.588C222.21 52.588 220.25 52.224 218.486 51.496C216.75 50.74 215.308 49.662 214.16 48.262L218.696 42.886C219.48 43.894 220.292 44.664 221.132 45.196C221.972 45.7 222.854 45.952 223.778 45.952C226.242 45.952 227.474 44.524 227.474 41.668V29.026H217.31V22.6H235.706V41.164C235.706 45 234.74 47.87 232.808 49.774C230.876 51.65 228.062 52.588 224.366 52.588ZM256.145 52.588C253.793 52.588 251.623 52.21 249.635 51.454C247.647 50.698 245.911 49.634 244.427 48.262C242.971 46.862 241.837 45.238 241.025 43.39C240.213 41.542 239.807 39.512 239.807 37.3C239.807 35.088 240.213 33.058 241.025 31.21C241.837 29.362 242.971 27.752 244.427 26.38C245.911 24.98 247.647 23.902 249.635 23.146C251.623 22.39 253.793 22.012 256.145 22.012C258.525 22.012 260.695 22.39 262.655 23.146C264.643 23.902 266.365 24.98 267.821 26.38C269.277 27.752 270.411 29.362 271.223 31.21C272.063 33.058 272.483 35.088 272.483 37.3C272.483 39.512 272.063 41.556 271.223 43.432C270.411 45.28 269.277 46.89 267.821 48.262C266.365 49.634 264.643 50.698 262.655 51.454C260.695 52.21 258.525 52.588 256.145 52.588ZM256.145 45.7C257.265 45.7 258.301 45.504 259.253 45.112C260.233 44.72 261.073 44.16 261.773 43.432C262.501 42.676 263.061 41.78 263.453 40.744C263.873 39.708 264.083 38.56 264.083 37.3C264.083 36.012 263.873 34.864 263.453 33.856C263.061 32.82 262.501 31.938 261.773 31.21C261.073 30.454 260.233 29.88 259.253 29.488C258.301 29.096 257.265 28.9 256.145 28.9C255.025 28.9 253.975 29.096 252.995 29.488C252.043 29.88 251.203 30.454 250.475 31.21C249.775 31.938 249.215 32.82 248.795 33.856C248.403 34.864 248.207 36.012 248.207 37.3C248.207 38.56 248.403 39.708 248.795 40.744C249.215 41.78 249.775 42.676 250.475 43.432C251.203 44.16 252.043 44.72 252.995 45.112C253.975 45.504 255.025 45.7 256.145 45.7ZM276.838 52V22.6H291.874C295.738 22.6 298.622 23.314 300.526 24.742C302.43 26.142 303.382 27.99 303.382 30.286C303.382 31.798 302.976 33.128 302.164 34.276C301.38 35.396 300.26 36.292 298.804 36.964C297.376 37.608 295.668 37.93 293.68 37.93L294.52 35.914C296.592 35.914 298.398 36.236 299.938 36.88C301.478 37.496 302.668 38.406 303.508 39.61C304.376 40.786 304.81 42.228 304.81 43.936C304.81 46.484 303.774 48.472 301.702 49.9C299.658 51.3 296.662 52 292.714 52H276.838ZM285.07 45.994H292.042C293.47 45.994 294.548 45.756 295.276 45.28C296.032 44.776 296.41 44.02 296.41 43.012C296.41 42.004 296.032 41.262 295.276 40.786C294.548 40.282 293.47 40.03 292.042 40.03H284.482V34.276H290.782C292.182 34.276 293.232 34.038 293.932 33.562C294.632 33.086 294.982 32.372 294.982 31.42C294.982 30.468 294.632 29.768 293.932 29.32C293.232 28.844 292.182 28.606 290.782 28.606H285.07V45.994Z" fill="white"/>
</svg>
